<svg width="340" height="357" viewBox="0 0 340 357" fill="none" xmlns="http://www.w3.org/2000/svg">
<path d="M222.111 37.502C222.991 55.9776 202.682 82.5913 192.418 93.5887H204.515C212.213 88.09 229.149 72.0338 235.308 51.7986C241.466 31.5634 229.076 8.90886 222.111 0.110962H213.313C215.879 4.87649 221.231 19.0264 222.111 37.502Z" fill="#E2D7C3"/>
<path d="M183.951 168.752C178.637 205.344 185.014 253.172 219.025 241.481C253.035 229.79 310.428 174.522 288.109 155.391C265.789 136.26 212.648 129.883 200.956 145.826C195.899 152.722 192.262 155.885 189.664 158.144C186.256 161.107 184.637 162.514 183.951 168.752Z" fill="#82A36B"/>
<path d="M71.291 104.375C53.8996 121.178 24.3343 156.181 45.2039 161.768C71.291 168.752 90.422 136.26 90.422 123.506C90.422 110.752 87.6866 104.375 71.291 104.375Z" fill="#82A36B"/>
<path fill-rule="evenodd" clip-rule="evenodd" d="M54.8954 68.8021C22.4606 93.8278 15.5402 246.457 45.2039 284.766C74.8677 323.075 195.834 342.45 238.156 342.45C276.57 342.45 288.379 295.65 302.266 240.613C308.183 217.161 314.478 192.212 323.37 168.752C346.269 108.338 243.088 81.2351 183.831 65.67C166.079 61.0071 152.27 57.3797 146.973 54.2024C123.995 40.419 87.3302 43.7765 54.8954 68.8021ZM45.2039 161.768C24.3343 156.181 53.8996 121.178 71.291 104.375C87.6866 104.375 90.422 110.752 90.422 123.506C90.422 136.26 71.291 168.752 45.2039 161.768ZM183.951 168.752C178.637 205.344 185.014 253.172 219.025 241.481C253.035 229.79 310.428 174.522 288.109 155.391C265.789 136.26 212.648 129.883 200.956 145.826C195.899 152.722 192.262 155.885 189.664 158.144C186.256 161.107 184.637 162.514 183.951 168.752ZM109.553 252.109C98.9246 230.852 77.668 257.423 71.291 273.366C67.7596 280.611 109.553 304.188 129.747 293.559C142.219 286.995 135.636 280.836 126.274 272.077C120.478 266.655 113.617 260.237 109.553 252.109Z" fill="#69995D"/>
<path d="M71.291 273.366C77.668 257.423 98.9246 230.852 109.553 252.109C113.617 260.237 120.478 266.655 126.274 272.077C135.636 280.836 142.219 286.995 129.747 293.559C109.553 304.188 67.7596 280.611 71.291 273.366Z" fill="#82A36B"/>
</svg>
