<svg width="30" height="30" viewBox="0 0 30 30" fill="none" xmlns="http://www.w3.org/2000/svg">
<g id="ArrowDown">
<path id="Vector" d="M16.3636 23.1818L13.6364 23.1818L13.6364 21.8182L12.2727 21.8182L12.2727 20.4546L10.9091 20.4546L10.9091 19.0909L9.54545 19.0909L9.54545 17.7273L8.18181 17.7273L8.18181 15L10.9091 15L10.9091 16.3636L12.2727 16.3636L12.2727 17.7273L13.6364 17.7273L13.6364 5.45455L16.3636 5.45455L16.3636 17.7273L17.7273 17.7273L17.7273 16.3636L19.0909 16.3636L19.0909 15L21.8182 15L21.8182 17.7273L20.4545 17.7273L20.4545 19.0909L19.0909 19.0909L19.0909 20.4546L17.7273 20.4546L17.7273 21.8182L16.3636 21.8182" fill="#3C3C3B"/>
</g>
</svg>
