<svg width="31" height="31" viewBox="0 0 31 31" fill="none" xmlns="http://www.w3.org/2000/svg">
<g id="ArrowDown">
<g id="Vector">
<mask id="path-1-outside-1_104_595" maskUnits="userSpaceOnUse" x="7.31817" y="4.80099" width="16" height="20" fill="black">
<rect fill="white" x="7.31817" y="4.80099" width="16" height="20"/>
<path d="M16.8636 23.801L14.1364 23.801L14.1364 22.4374L12.7727 22.4374L12.7727 21.0737L11.4091 21.0737L11.4091 19.7101L10.0454 19.7101L10.0454 18.3465L8.68181 18.3465L8.68181 15.6192L11.4091 15.6192L11.4091 16.9828L12.7727 16.9828L12.7727 18.3465L14.1364 18.3465L14.1364 6.07372L16.8636 6.07372L16.8636 18.3465L18.2273 18.3465L18.2273 16.9828L19.5909 16.9828L19.5909 15.6192L22.3182 15.6192L22.3182 18.3464L20.9545 18.3464L20.9545 19.7101L19.5909 19.7101L19.5909 21.0737L18.2273 21.0737L18.2273 22.4374L16.8636 22.4374"/>
</mask>
<path d="M16.8636 23.801L14.1364 23.801L14.1364 22.4374L12.7727 22.4374L12.7727 21.0737L11.4091 21.0737L11.4091 19.7101L10.0454 19.7101L10.0454 18.3465L8.68181 18.3465L8.68181 15.6192L11.4091 15.6192L11.4091 16.9828L12.7727 16.9828L12.7727 18.3465L14.1364 18.3465L14.1364 6.07372L16.8636 6.07372L16.8636 18.3465L18.2273 18.3465L18.2273 16.9828L19.5909 16.9828L19.5909 15.6192L22.3182 15.6192L22.3182 18.3464L20.9545 18.3464L20.9545 19.7101L19.5909 19.7101L19.5909 21.0737L18.2273 21.0737L18.2273 22.4374L16.8636 22.4374" fill="#F4F1E6"/>
<path d="M14.1364 23.801L13.1364 23.801L13.1364 24.801L14.1364 24.801L14.1364 23.801ZM14.1364 22.4374L15.1364 22.4374L15.1364 21.4374L14.1364 21.4374L14.1364 22.4374ZM12.7727 22.4374L11.7727 22.4374L11.7727 23.4374L12.7727 23.4374L12.7727 22.4374ZM12.7727 21.0737L13.7727 21.0737L13.7727 20.0737L12.7727 20.0737L12.7727 21.0737ZM11.4091 21.0737L10.4091 21.0737L10.4091 22.0737L11.4091 22.0737L11.4091 21.0737ZM11.4091 19.7101L12.4091 19.7101L12.4091 18.7101L11.4091 18.7101L11.4091 19.7101ZM10.0454 19.7101L9.04545 19.7101L9.04545 20.7101L10.0454 20.7101L10.0454 19.7101ZM10.0454 18.3465L11.0454 18.3465L11.0454 17.3465L10.0454 17.3465L10.0454 18.3465ZM8.68181 18.3465L7.68181 18.3465L7.68181 19.3465L8.68181 19.3465L8.68181 18.3465ZM8.68181 15.6192L8.68181 14.6192L7.68181 14.6192L7.68181 15.6192L8.68181 15.6192ZM11.4091 15.6192L12.4091 15.6192L12.4091 14.6192L11.4091 14.6192L11.4091 15.6192ZM11.4091 16.9828L10.4091 16.9828L10.4091 17.9828L11.4091 17.9828L11.4091 16.9828ZM12.7727 16.9828L13.7727 16.9828L13.7727 15.9828L12.7727 15.9828L12.7727 16.9828ZM12.7727 18.3465L11.7727 18.3465L11.7727 19.3465L12.7727 19.3465L12.7727 18.3465ZM14.1364 18.3465L14.1364 19.3465L15.1364 19.3465L15.1364 18.3465L14.1364 18.3465ZM14.1364 6.07372L14.1364 5.07372L13.1364 5.07372L13.1364 6.07372L14.1364 6.07372ZM16.8636 6.07372L17.8636 6.07372L17.8636 5.07372L16.8636 5.07372L16.8636 6.07372ZM16.8636 18.3465L15.8636 18.3465L15.8636 19.3465L16.8636 19.3465L16.8636 18.3465ZM18.2273 18.3465L18.2273 19.3465L19.2273 19.3465L19.2273 18.3465L18.2273 18.3465ZM18.2273 16.9828L18.2273 15.9828L17.2273 15.9828L17.2273 16.9828L18.2273 16.9828ZM19.5909 16.9828L19.5909 17.9828L20.5909 17.9828L20.5909 16.9828L19.5909 16.9828ZM19.5909 15.6192L19.5909 14.6192L18.5909 14.6192L18.5909 15.6192L19.5909 15.6192ZM22.3182 15.6192L23.3182 15.6192L23.3182 14.6192L22.3182 14.6192L22.3182 15.6192ZM22.3182 18.3464L22.3182 19.3464L23.3182 19.3464L23.3182 18.3464L22.3182 18.3464ZM20.9545 18.3464L20.9545 17.3464L19.9545 17.3465L19.9545 18.3465L20.9545 18.3464ZM20.9545 19.7101L20.9545 20.7101L21.9545 20.7101L21.9545 19.7101L20.9545 19.7101ZM19.5909 19.7101L19.5909 18.7101L18.5909 18.7101L18.5909 19.7101L19.5909 19.7101ZM19.5909 21.0737L19.5909 22.0737L20.5909 22.0737L20.5909 21.0737L19.5909 21.0737ZM18.2273 21.0737L18.2273 20.0737L17.2273 20.0737L17.2273 21.0737L18.2273 21.0737ZM18.2273 22.4374L18.2273 23.4374L19.2273 23.4374L19.2273 22.4374L18.2273 22.4374ZM16.8636 23.801L16.8636 22.801L14.1364 22.801L14.1364 23.801L14.1364 24.801L16.8636 24.801L16.8636 23.801ZM14.1364 23.801L15.1364 23.801L15.1364 22.4374L14.1364 22.4374L13.1364 22.4374L13.1364 23.801L14.1364 23.801ZM14.1364 22.4374L14.1364 21.4374L12.7727 21.4374L12.7727 22.4374L12.7727 23.4374L14.1364 23.4374L14.1364 22.4374ZM12.7727 22.4374L13.7727 22.4374L13.7727 21.0737L12.7727 21.0737L11.7727 21.0737L11.7727 22.4374L12.7727 22.4374ZM12.7727 21.0737L12.7727 20.0737L11.4091 20.0737L11.4091 21.0737L11.4091 22.0737L12.7727 22.0737L12.7727 21.0737ZM11.4091 21.0737L12.4091 21.0737L12.4091 19.7101L11.4091 19.7101L10.4091 19.7101L10.4091 21.0737L11.4091 21.0737ZM11.4091 19.7101L11.4091 18.7101L10.0454 18.7101L10.0454 19.7101L10.0454 20.7101L11.4091 20.7101L11.4091 19.7101ZM10.0454 19.7101L11.0454 19.7101L11.0454 18.3465L10.0454 18.3465L9.04545 18.3465L9.04545 19.7101L10.0454 19.7101ZM10.0454 18.3465L10.0454 17.3465L8.68181 17.3465L8.68181 18.3465L8.68181 19.3465L10.0454 19.3465L10.0454 18.3465ZM8.68181 18.3465L9.68181 18.3465L9.68181 15.6192L8.68181 15.6192L7.68181 15.6192L7.68181 18.3465L8.68181 18.3465ZM8.68181 15.6192L8.68181 16.6192L11.4091 16.6192L11.4091 15.6192L11.4091 14.6192L8.68181 14.6192L8.68181 15.6192ZM11.4091 15.6192L10.4091 15.6192L10.4091 16.9828L11.4091 16.9828L12.4091 16.9828L12.4091 15.6192L11.4091 15.6192ZM11.4091 16.9828L11.4091 17.9828L12.7727 17.9828L12.7727 16.9828L12.7727 15.9828L11.4091 15.9828L11.4091 16.9828ZM12.7727 16.9828L11.7727 16.9828L11.7727 18.3465L12.7727 18.3465L13.7727 18.3465L13.7727 16.9828L12.7727 16.9828ZM12.7727 18.3465L12.7727 19.3465L14.1364 19.3465L14.1364 18.3465L14.1364 17.3465L12.7727 17.3465L12.7727 18.3465ZM14.1364 18.3465L15.1364 18.3465L15.1364 6.07372L14.1364 6.07372L13.1364 6.07372L13.1364 18.3465L14.1364 18.3465ZM14.1364 6.07372L14.1364 7.07372L16.8636 7.07372L16.8636 6.07372L16.8636 5.07372L14.1364 5.07372L14.1364 6.07372ZM16.8636 6.07372L15.8636 6.07372L15.8636 18.3465L16.8636 18.3465L17.8636 18.3465L17.8636 6.07372L16.8636 6.07372ZM16.8636 18.3465L16.8636 19.3465L18.2273 19.3465L18.2273 18.3465L18.2273 17.3465L16.8636 17.3465L16.8636 18.3465ZM18.2273 18.3465L19.2273 18.3465L19.2273 16.9828L18.2273 16.9828L17.2273 16.9828L17.2273 18.3465L18.2273 18.3465ZM18.2273 16.9828L18.2273 17.9828L19.5909 17.9828L19.5909 16.9828L19.5909 15.9828L18.2273 15.9828L18.2273 16.9828ZM19.5909 16.9828L20.5909 16.9828L20.5909 15.6192L19.5909 15.6192L18.5909 15.6192L18.5909 16.9828L19.5909 16.9828ZM19.5909 15.6192L19.5909 16.6192L22.3182 16.6192L22.3182 15.6192L22.3182 14.6192L19.5909 14.6192L19.5909 15.6192ZM22.3182 15.6192L21.3182 15.6192L21.3182 18.3464L22.3182 18.3464L23.3182 18.3464L23.3182 15.6192L22.3182 15.6192ZM22.3182 18.3464L22.3182 17.3464L20.9545 17.3464L20.9545 18.3464L20.9545 19.3464L22.3182 19.3464L22.3182 18.3464ZM20.9545 18.3464L19.9545 18.3465L19.9545 19.7101L20.9545 19.7101L21.9545 19.7101L21.9545 18.3464L20.9545 18.3464ZM20.9545 19.7101L20.9545 18.7101L19.5909 18.7101L19.5909 19.7101L19.5909 20.7101L20.9545 20.7101L20.9545 19.7101ZM19.5909 19.7101L18.5909 19.7101L18.5909 21.0737L19.5909 21.0737L20.5909 21.0737L20.5909 19.7101L19.5909 19.7101ZM19.5909 21.0737L19.5909 20.0737L18.2273 20.0737L18.2273 21.0737L18.2273 22.0737L19.5909 22.0737L19.5909 21.0737ZM18.2273 21.0737L17.2273 21.0737L17.2273 22.4374L18.2273 22.4374L19.2273 22.4374L19.2273 21.0737L18.2273 21.0737ZM18.2273 22.4374L18.2273 21.4374L16.8636 21.4374L16.8636 22.4374L16.8636 23.4374L18.2273 23.4374L18.2273 22.4374Z" fill="#3C3C3B" mask="url(#path-1-outside-1_104_595)"/>
</g>
</g>
</svg>
