<svg width="407" height="571" viewBox="0 0 407 571" fill="none" xmlns="http://www.w3.org/2000/svg">
<path d="M219.618 212.162C233.661 241.258 265.777 300.534 281.9 304.869C302.054 310.289 338.647 345.641 332.568 378.469C326.489 411.297 368.842 482.533 380.39 483.336C389.629 483.979 401.462 522.592 406.224 541.818C383.786 527.536 334.744 491.496 318.079 461.593C297.249 424.214 257.086 414.5 251.504 388.894C247.038 368.41 209.281 327.561 190.96 309.698C175.492 302.15 144.739 283.138 145.472 267.479C146.388 247.904 142.479 217.505 160.348 214.062C178.218 210.62 209.163 202.062 219.618 212.162Z" fill="#C87A3F"/>
<path d="M175.206 230.845C170.951 229.968 165.986 228.816 160.69 227.422C145.597 227.484 125.247 233.36 117.51 234.897C106.656 237.052 96.5568 230.87 74.5938 222.408C57.0234 215.638 53.9815 225.516 54.6568 231.301C56.0717 223.938 83.0478 234.212 93.5698 246.413C101.987 256.175 151.501 240.102 175.206 230.845Z" fill="#69995D"/>
<path d="M75.7249 121.67C88.7221 137.73 106.674 172.646 103.631 194.057C101.614 208.255 135.031 220.671 160.69 227.422C166.772 227.398 172 228.317 175.206 230.845C171.536 226.33 167.394 221.082 162.982 215.313C149.848 203.8 130.462 194.314 115.048 179.285C97.7095 162.381 99.3238 142.078 102.298 134.039L30.795 70.9117C41.4392 82.4777 65.3271 108.822 75.7249 121.67Z" fill="#69995D"/>
<path d="M116.534 59.9629C112.532 60.3251 103.416 67.9609 98.9614 95.607C95.1058 119.534 134.605 178.203 162.982 215.313C168.316 219.987 172.618 224.996 175.206 230.845C170.746 218.069 160.931 190.49 157.342 182.383C152.856 172.25 130.19 168.917 121.965 143.29C113.741 117.663 132.886 119.94 115.506 98.7865C101.603 81.8634 110.398 65.8528 116.534 59.9629Z" fill="#69995D"/>
<path d="M175.206 230.845C175.549 229.698 175.975 228.429 176.485 227.07C184.959 201.67 198.454 153.455 193.242 136.991C186.387 115.338 164.714 103.91 169.56 78.6955C173.436 58.5238 163.65 33.0151 158.273 22.7822C159.702 53.5603 161.699 119.599 158.254 137.53C154.808 155.46 170.472 163.118 178.735 164.706L175.206 230.845Z" fill="#69995D"/>
<path d="M210.11 192.524C234.744 188.542 232.279 182.259 241.898 160.866C249.594 143.753 251.207 121.984 251.051 113.239C248.024 119.436 240.37 134.427 233.967 144.817C225.963 157.804 203.638 159.324 199.983 168.789C197.572 175.034 187.077 201.255 179.522 220.091C185.24 208.53 195.493 194.886 210.11 192.524Z" fill="#69995D"/>
</svg>
