<svg width="1729" height="705" viewBox="0 0 1729 705" fill="none" xmlns="http://www.w3.org/2000/svg">
<rect width="1728" height="704" transform="translate(1 0.767578)" fill="#F4F1E6"/>
<path d="M971.934 335.841C980.726 281.917 1022.93 176.18 1121.4 184.62C1244.48 195.17 1277.89 260.231 1281.41 290.123C1284.93 320.016 1260.31 404.418 1226.9 423.76C1193.49 443.102 1107 448.378 1079.2 448.378C1056.34 448.378 982.485 418.485 971.934 335.841Z" fill="#E9B44C"/>
<path d="M841.676 637.575C958.296 637.575 1193.08 683.641 1295.9 704.768H1729V223.491C1680.41 195.321 1548.58 145.744 1409.99 172.786C1279.76 198.196 1196.1 305.974 1130.27 388.441C1108.53 415.682 1088.73 440.161 1069.85 457.997C1009 515.462 768.893 544.417 656.445 551.711C724.709 600.244 789.324 637.575 841.676 637.575Z" fill="#2D5948"/>
<path d="M0.504883 426.829C50.5049 391.618 185.057 321.519 305.057 333.35C401.187 342.827 534.628 465.105 656.445 551.711C768.893 544.417 1009 515.462 1069.85 457.997C1088.73 440.161 1108.53 415.682 1130.27 388.441C928.439 318.669 498.578 182.504 393.789 196.026C262.803 212.927 55.7612 111.519 30.4092 107.293L0.504883 97.75V426.829Z" fill="#82A36B"/>
<path d="M305.057 333.35C185.057 321.519 50.5049 391.618 0.504883 426.829V700.955L1295.9 704.768C1193.08 683.641 958.296 637.575 841.676 637.575C789.324 637.575 724.709 600.244 656.445 551.711C534.628 465.105 401.187 342.827 305.057 333.35Z" fill="#B5BD89"/>
<g clip-path="url(#clip0_414_1078)">
<g clip-path="url(#clip1_414_1078)">
<path d="M1567.53 585.888C1567.35 585.888 1567.2 585.856 1567.07 585.792C1566.96 585.744 1566.9 585.648 1566.9 585.504C1566.9 585.344 1566.95 585.232 1567.05 585.168C1567.16 585.088 1567.3 585.024 1567.48 584.976C1567.94 584.848 1568.34 584.648 1568.68 584.376C1569.03 584.104 1569.3 583.768 1569.47 583.368C1569.87 582.472 1570.25 581.592 1570.6 580.728C1570.95 579.848 1571.3 578.984 1571.63 578.136C1571.97 577.272 1572.3 576.4 1572.64 575.52C1572.98 574.624 1573.31 573.72 1573.65 572.808C1573.89 572.152 1574.04 571.68 1574.1 571.392C1574.17 571.088 1574.22 570.912 1574.25 570.864C1574.54 570.784 1574.81 570.712 1575.06 570.648C1575.32 570.584 1575.59 570.496 1575.88 570.384C1576.17 570.272 1576.41 570.128 1576.6 569.952C1576.81 569.776 1576.96 569.64 1577.06 569.544C1577.12 569.496 1577.18 569.472 1577.25 569.472C1577.31 569.456 1577.38 569.504 1577.44 569.616C1577.49 569.712 1577.53 569.816 1577.56 569.928C1577.61 570.024 1577.65 570.136 1577.68 570.264C1578.02 571.336 1578.36 572.432 1578.71 573.552C1579.06 574.656 1579.42 575.76 1579.77 576.864C1580.14 577.968 1580.5 579.064 1580.85 580.152C1581.2 581.224 1581.54 582.272 1581.88 583.296C1581.98 583.616 1582.12 583.888 1582.31 584.112C1582.52 584.336 1582.75 584.512 1583.01 584.64C1583.26 584.768 1583.55 584.88 1583.87 584.976C1584.05 585.024 1584.18 585.088 1584.28 585.168C1584.39 585.232 1584.45 585.336 1584.45 585.48C1584.45 585.592 1584.4 585.68 1584.3 585.744C1584.21 585.808 1584.1 585.84 1583.97 585.84C1583.65 585.84 1583.25 585.824 1582.77 585.792C1582.3 585.776 1581.83 585.76 1581.35 585.744C1580.87 585.728 1580.45 585.72 1580.08 585.72C1579.78 585.72 1579.4 585.728 1578.95 585.744C1578.52 585.76 1578.08 585.776 1577.63 585.792C1577.18 585.808 1576.8 585.816 1576.48 585.816C1576.34 585.816 1576.21 585.792 1576.1 585.744C1576 585.68 1575.95 585.592 1575.95 585.48C1575.95 585.336 1576.01 585.224 1576.12 585.144C1576.23 585.064 1576.37 585.008 1576.53 584.976C1577.12 584.848 1577.55 584.68 1577.82 584.472C1578.1 584.264 1578.18 583.952 1578.09 583.536C1578.02 583.232 1577.94 582.912 1577.85 582.576C1577.75 582.24 1577.66 581.904 1577.56 581.568C1577.48 581.216 1577.39 580.88 1577.3 580.56C1577.26 580.432 1577.22 580.336 1577.18 580.272C1577.13 580.208 1577.03 580.176 1576.89 580.176H1572.64C1572.53 580.176 1572.44 580.208 1572.38 580.272C1572.31 580.336 1572.26 580.44 1572.23 580.584C1572.17 580.808 1572.1 581.032 1572.02 581.256C1571.94 581.48 1571.86 581.704 1571.78 581.928C1571.71 582.152 1571.65 582.376 1571.58 582.6C1571.52 582.824 1571.46 583.04 1571.39 583.248C1571.28 583.728 1571.33 584.096 1571.54 584.352C1571.74 584.608 1572.19 584.816 1572.88 584.976C1573.26 585.056 1573.46 585.224 1573.46 585.48C1573.46 585.592 1573.41 585.68 1573.31 585.744C1573.23 585.792 1573.1 585.816 1572.9 585.816C1572.44 585.816 1572.01 585.8 1571.61 585.768C1571.21 585.752 1570.77 585.744 1570.29 585.744C1569.81 585.744 1569.35 585.768 1568.92 585.816C1568.49 585.864 1568.02 585.888 1567.53 585.888ZM1573.31 578.88H1576.43C1576.67 578.88 1576.79 578.824 1576.79 578.712C1576.79 578.664 1576.78 578.624 1576.77 578.592C1576.77 578.56 1576.76 578.52 1576.74 578.472L1575.14 573.048C1575.09 572.872 1575.04 572.784 1574.99 572.784C1574.96 572.784 1574.9 572.872 1574.82 573.048L1572.93 578.472C1572.9 578.536 1572.88 578.6 1572.88 578.664C1572.88 578.744 1572.92 578.8 1573 578.832C1573.1 578.864 1573.2 578.88 1573.31 578.88ZM1590.87 586.104C1590.41 586.104 1589.98 586.064 1589.58 585.984C1589.19 585.904 1588.84 585.824 1588.52 585.744C1588.28 585.664 1588.06 585.6 1587.85 585.552C1587.66 585.504 1587.5 585.48 1587.37 585.48C1587.21 585.48 1587.06 585.512 1586.91 585.576C1586.77 585.624 1586.63 585.696 1586.51 585.792C1586.36 585.904 1586.25 585.96 1586.17 585.96C1586.03 585.96 1585.91 585.928 1585.83 585.864C1585.77 585.8 1585.74 585.728 1585.74 585.648C1585.74 585.504 1585.78 585.224 1585.86 584.808C1585.95 584.392 1585.99 583.872 1585.98 583.248L1585.88 572.568C1585.88 572.152 1585.82 571.784 1585.69 571.464C1585.58 571.128 1585.33 570.92 1584.95 570.84C1584.87 570.824 1584.79 570.784 1584.73 570.72C1584.68 570.656 1584.66 570.568 1584.66 570.456C1584.66 570.376 1584.68 570.304 1584.73 570.24C1584.78 570.176 1584.84 570.136 1584.92 570.12C1585.27 570.056 1585.68 569.952 1586.15 569.808C1586.61 569.648 1587.06 569.488 1587.49 569.328C1587.94 569.152 1588.28 569.024 1588.52 568.944C1588.68 568.88 1588.79 568.848 1588.86 568.848C1588.95 568.848 1589.02 568.88 1589.05 568.944C1589.1 568.992 1589.12 569.056 1589.12 569.136C1589.12 569.232 1589.1 569.432 1589.05 569.736C1589.02 570.04 1589 570.344 1589 570.648V575.784C1589 575.992 1589.02 576.16 1589.05 576.288C1589.08 576.4 1589.14 576.456 1589.22 576.456C1589.71 576.12 1590.23 575.864 1590.75 575.688C1591.3 575.496 1591.81 575.4 1592.29 575.4C1593.12 575.4 1593.87 575.616 1594.55 576.048C1595.22 576.48 1595.75 577.072 1596.13 577.824C1596.53 578.576 1596.73 579.424 1596.73 580.368C1596.73 581.488 1596.48 582.488 1595.99 583.368C1595.49 584.232 1594.8 584.904 1593.92 585.384C1593.06 585.864 1592.04 586.104 1590.87 586.104ZM1591.31 585.096C1591.74 585.096 1592.11 584.912 1592.41 584.544C1592.71 584.16 1592.95 583.656 1593.11 583.032C1593.28 582.408 1593.37 581.728 1593.37 580.992C1593.37 580.352 1593.28 579.704 1593.11 579.048C1592.95 578.392 1592.68 577.848 1592.31 577.416C1591.96 576.968 1591.51 576.744 1590.95 576.744C1590.66 576.744 1590.32 576.792 1589.94 576.888C1589.55 576.968 1589.24 577.104 1589 577.296V582.408C1589 582.92 1589.11 583.384 1589.31 583.8C1589.54 584.216 1589.83 584.536 1590.18 584.76C1590.53 584.984 1590.91 585.096 1591.31 585.096ZM1602.97 586.104C1602.01 586.104 1601.15 585.888 1600.38 585.456C1599.61 585.024 1598.99 584.432 1598.53 583.68C1598.08 582.912 1597.86 582.048 1597.86 581.088C1597.86 580.32 1598 579.592 1598.29 578.904C1598.58 578.216 1598.98 577.608 1599.49 577.08C1600 576.552 1600.6 576.136 1601.29 575.832C1601.98 575.528 1602.71 575.376 1603.5 575.376C1604.49 575.376 1605.39 575.608 1606.19 576.072C1606.99 576.536 1607.62 577.152 1608.08 577.92C1608.56 578.672 1608.8 579.496 1608.8 580.392C1608.8 581.416 1608.58 582.368 1608.13 583.248C1607.7 584.112 1607.05 584.808 1606.19 585.336C1605.34 585.848 1604.27 586.104 1602.97 586.104ZM1603.45 585.048C1603.79 585.048 1604.07 584.984 1604.31 584.856C1604.57 584.712 1604.78 584.504 1604.94 584.232C1605.13 583.912 1605.26 583.48 1605.32 582.936C1605.4 582.376 1605.44 581.72 1605.44 580.968C1605.44 580.104 1605.35 579.336 1605.15 578.664C1604.96 577.976 1604.69 577.432 1604.34 577.032C1604 576.632 1603.6 576.432 1603.14 576.432C1602.88 576.432 1602.65 576.48 1602.44 576.576C1602.23 576.656 1602.05 576.776 1601.89 576.936C1601.62 577.256 1601.43 577.712 1601.31 578.304C1601.22 578.896 1601.17 579.624 1601.17 580.488C1601.17 581.256 1601.27 581.992 1601.46 582.696C1601.67 583.384 1601.94 583.952 1602.27 584.4C1602.63 584.832 1603.02 585.048 1603.45 585.048ZM1617.66 586.272C1617.53 586.272 1617.46 586.192 1617.46 586.032C1617.46 585.84 1617.48 585.584 1617.51 585.264C1617.56 584.944 1617.58 584.696 1617.58 584.52C1617.58 584.456 1617.58 584.4 1617.56 584.352C1617.56 584.304 1617.55 584.272 1617.54 584.256C1617.1 584.784 1616.55 585.232 1615.88 585.6C1615.21 585.952 1614.5 586.128 1613.74 586.128C1613.25 586.128 1612.8 585.984 1612.4 585.696C1612 585.392 1611.68 584.984 1611.44 584.472C1611.22 583.96 1611.1 583.384 1611.1 582.744V578.256C1611.1 577.888 1611.03 577.592 1610.89 577.368C1610.76 577.144 1610.51 576.992 1610.14 576.912C1610.05 576.896 1609.96 576.856 1609.88 576.792C1609.82 576.712 1609.78 576.6 1609.78 576.456C1609.78 576.344 1609.82 576.256 1609.88 576.192C1609.94 576.112 1610.03 576.064 1610.14 576.048C1610.82 576.016 1611.42 575.952 1611.97 575.856C1612.51 575.744 1613.06 575.616 1613.62 575.472C1613.7 575.456 1613.78 575.44 1613.86 575.424C1613.96 575.392 1614.05 575.376 1614.13 575.376C1614.35 575.376 1614.46 575.488 1614.44 575.712C1614.38 576.08 1614.33 576.392 1614.3 576.648C1614.26 576.888 1614.25 577.192 1614.25 577.56V582.168C1614.25 582.552 1614.31 582.888 1614.44 583.176C1614.57 583.464 1614.74 583.688 1614.97 583.848C1615.19 584.008 1615.44 584.096 1615.71 584.112C1615.97 584.112 1616.22 584.08 1616.46 584.016C1616.71 583.952 1616.95 583.808 1617.18 583.584C1617.27 583.504 1617.38 583.344 1617.49 583.104C1617.6 582.848 1617.66 582.512 1617.66 582.096V578.232C1617.66 577.944 1617.6 577.712 1617.49 577.536C1617.38 577.344 1617.22 577.192 1617.03 577.08C1616.84 576.968 1616.62 576.904 1616.36 576.888C1616.18 576.872 1616.04 576.832 1615.93 576.768C1615.83 576.688 1615.78 576.552 1615.78 576.36C1615.78 576.2 1615.84 576.08 1615.95 576C1616.06 575.92 1616.2 575.88 1616.36 575.88C1617.18 575.832 1617.82 575.792 1618.3 575.76C1618.78 575.712 1619.18 575.664 1619.48 575.616C1619.78 575.568 1620.09 575.512 1620.39 575.448C1620.44 575.432 1620.5 575.416 1620.56 575.4C1620.62 575.384 1620.67 575.376 1620.7 575.376C1620.94 575.376 1621.06 575.472 1621.06 575.664C1621.06 575.712 1621.06 575.768 1621.04 575.832C1621.02 575.896 1621 575.96 1620.97 576.024C1620.95 576.088 1620.93 576.232 1620.9 576.456C1620.88 576.664 1620.86 576.888 1620.82 577.128C1620.81 577.368 1620.8 577.56 1620.8 577.704V583.272C1620.8 583.64 1620.84 583.888 1620.92 584.016C1621.02 584.128 1621.12 584.184 1621.23 584.184C1621.31 584.184 1621.43 584.192 1621.59 584.208C1621.75 584.208 1621.86 584.208 1621.9 584.208C1622.05 584.208 1622.16 584.248 1622.24 584.328C1622.32 584.408 1622.36 584.512 1622.36 584.64C1622.36 584.784 1622.33 584.904 1622.26 585C1622.22 585.08 1622.11 585.128 1621.95 585.144C1621.18 585.208 1620.49 585.344 1619.86 585.552C1619.26 585.744 1618.73 585.928 1618.28 586.104C1618.18 586.136 1618.08 586.168 1617.97 586.2C1617.86 586.248 1617.75 586.272 1617.66 586.272ZM1627.83 586.104C1626.77 586.104 1625.98 585.84 1625.45 585.312C1624.92 584.768 1624.66 584.008 1624.66 583.032V577.512C1624.66 577.368 1624.6 577.264 1624.49 577.2C1624.39 577.136 1624.2 577.096 1623.91 577.08H1623.6C1623.49 577.08 1623.39 576.992 1623.31 576.816C1623.25 576.624 1623.22 576.456 1623.22 576.312C1623.22 576.28 1623.23 576.24 1623.24 576.192C1623.27 576.128 1623.31 576.088 1623.36 576.072C1623.75 575.928 1624.15 575.712 1624.59 575.424C1625.03 575.12 1625.46 574.8 1625.86 574.464C1626.27 574.128 1626.61 573.848 1626.87 573.624C1626.98 573.544 1627.07 573.472 1627.15 573.408C1627.23 573.344 1627.34 573.312 1627.47 573.312C1627.61 573.312 1627.71 573.344 1627.78 573.408C1627.84 573.456 1627.86 573.584 1627.83 573.792L1627.68 575.208C1627.67 575.4 1627.71 575.536 1627.8 575.616C1627.91 575.68 1628.07 575.712 1628.26 575.712H1631.11C1631.16 575.712 1631.21 575.768 1631.26 575.88C1631.31 575.992 1631.33 576.096 1631.33 576.192C1631.33 576.416 1631.3 576.632 1631.23 576.84C1631.17 577.048 1631.1 577.152 1631.02 577.152H1628.79C1628.42 577.152 1628.16 577.2 1628.02 577.296C1627.89 577.376 1627.83 577.528 1627.83 577.752V582.288C1627.83 583.024 1627.96 583.576 1628.23 583.944C1628.52 584.296 1628.9 584.472 1629.36 584.472C1629.83 584.472 1630.16 584.424 1630.37 584.328C1630.59 584.232 1630.79 584.152 1630.97 584.088C1631.03 584.056 1631.08 584.04 1631.11 584.04C1631.19 584.04 1631.26 584.088 1631.31 584.184C1631.35 584.28 1631.38 584.392 1631.38 584.52C1631.38 584.616 1631.21 584.792 1630.87 585.048C1630.54 585.304 1630.1 585.544 1629.55 585.768C1629.03 585.992 1628.45 586.104 1627.83 586.104ZM1646.22 586.104C1644.71 586.104 1643.46 585.84 1642.45 585.312C1641.44 584.768 1640.68 584.016 1640.17 583.056C1639.67 582.096 1639.43 580.976 1639.43 579.696V572.856C1639.43 572.408 1639.32 572 1639.11 571.632C1638.91 571.264 1638.6 571.032 1638.2 570.936C1637.75 570.808 1637.53 570.632 1637.53 570.408C1637.53 570.296 1637.59 570.208 1637.7 570.144C1637.83 570.08 1637.98 570.048 1638.15 570.048C1638.67 570.048 1639.19 570.072 1639.74 570.12C1640.28 570.152 1640.79 570.168 1641.27 570.168C1641.72 570.168 1642.26 570.152 1642.88 570.12C1643.52 570.088 1644.07 570.072 1644.51 570.072C1644.71 570.072 1644.86 570.104 1644.97 570.168C1645.1 570.216 1645.16 570.304 1645.16 570.432C1645.16 570.608 1645.04 570.736 1644.8 570.816C1644.56 570.896 1644.31 571 1644.03 571.128C1643.79 571.224 1643.59 571.424 1643.41 571.728C1643.23 572.016 1643.15 572.432 1643.15 572.976V579.264C1643.15 580.352 1643.32 581.248 1643.67 581.952C1644.03 582.656 1644.49 583.176 1645.07 583.512C1645.66 583.848 1646.31 584.016 1647.03 584.016C1648.49 584.016 1649.57 583.584 1650.27 582.72C1650.99 581.856 1651.35 580.536 1651.35 578.76C1651.35 578.344 1651.35 577.88 1651.35 577.368C1651.37 576.84 1651.38 576.304 1651.38 575.76C1651.38 575.2 1651.37 574.672 1651.35 574.176C1651.34 573.456 1651.28 572.896 1651.19 572.496C1651.11 572.096 1650.98 571.784 1650.8 571.56C1650.63 571.336 1650.39 571.152 1650.08 571.008C1649.91 570.912 1649.7 570.832 1649.46 570.768C1649.23 570.688 1649.12 570.576 1649.12 570.432C1649.12 570.304 1649.19 570.216 1649.31 570.168C1649.44 570.12 1649.62 570.096 1649.84 570.096C1650.42 570.096 1650.85 570.104 1651.14 570.12C1651.44 570.136 1651.78 570.144 1652.15 570.144C1652.45 570.144 1652.7 570.136 1652.89 570.12C1653.1 570.104 1653.31 570.088 1653.51 570.072C1653.74 570.056 1654 570.048 1654.31 570.048C1654.5 570.048 1654.65 570.072 1654.76 570.12C1654.87 570.168 1654.93 570.264 1654.93 570.408C1654.93 570.616 1654.71 570.784 1654.28 570.912C1653.75 571.056 1653.38 571.304 1653.15 571.656C1652.95 571.992 1652.83 572.448 1652.79 573.024C1652.75 574.24 1652.71 575.36 1652.7 576.384C1652.68 577.392 1652.67 578.424 1652.67 579.48C1652.66 580.776 1652.36 581.928 1651.79 582.936C1651.23 583.928 1650.46 584.704 1649.48 585.264C1648.51 585.824 1647.42 586.104 1646.22 586.104ZM1658.31 586.104C1657.78 586.104 1657.27 586.04 1656.78 585.912C1656.28 585.784 1655.83 585.576 1655.43 585.288C1655.29 585.048 1655.18 584.672 1655.12 584.16C1655.06 583.648 1655.03 583.112 1655.05 582.552C1655.05 582.36 1655.21 582.264 1655.53 582.264C1655.66 582.264 1655.77 582.304 1655.86 582.384C1655.96 582.464 1656.02 582.544 1656.03 582.624C1656.34 583.296 1656.69 583.872 1657.09 584.352C1657.49 584.816 1657.97 585.048 1658.53 585.048C1658.96 585.048 1659.29 584.92 1659.51 584.664C1659.74 584.392 1659.85 584.088 1659.85 583.752C1659.85 583.336 1659.68 582.992 1659.34 582.72C1659.02 582.432 1658.63 582.168 1658.17 581.928C1657.7 581.688 1657.26 581.416 1656.85 581.112C1656.43 580.808 1656.09 580.448 1655.82 580.032C1655.56 579.6 1655.43 579.088 1655.43 578.496C1655.43 577.872 1655.6 577.328 1655.94 576.864C1656.29 576.4 1656.75 576.04 1657.33 575.784C1657.92 575.512 1658.58 575.376 1659.3 575.376C1659.82 575.376 1660.31 575.44 1660.76 575.568C1661.21 575.68 1661.51 575.792 1661.67 575.904C1661.8 576.064 1661.9 576.368 1661.98 576.816C1662.06 577.248 1662.1 577.728 1662.1 578.256C1662.1 578.432 1661.96 578.52 1661.67 578.52C1661.56 578.52 1661.44 578.48 1661.31 578.4C1661.2 578.32 1661.13 578.24 1661.1 578.16C1660.89 577.536 1660.62 577.072 1660.28 576.768C1659.96 576.448 1659.6 576.288 1659.2 576.288C1658.85 576.288 1658.53 576.4 1658.24 576.624C1657.95 576.848 1657.81 577.152 1657.81 577.536C1657.81 577.872 1657.96 578.176 1658.26 578.448C1658.58 578.704 1658.98 578.96 1659.44 579.216C1660.48 579.76 1661.22 580.288 1661.67 580.8C1662.12 581.296 1662.34 581.96 1662.34 582.792C1662.34 583.832 1662 584.648 1661.31 585.24C1660.64 585.816 1659.64 586.104 1658.31 586.104Z" fill="#F4F1E6"/>
<path d="M1529.26 637.104C1528.57 637.104 1527.9 637.024 1527.26 636.864C1526.62 636.704 1526.02 636.448 1525.46 636.096C1525.37 636.016 1525.27 635.928 1525.18 635.832C1525.08 635.736 1525.01 635.632 1524.96 635.52C1524.8 635.088 1524.69 634.56 1524.62 633.936C1524.58 633.312 1524.56 632.68 1524.58 632.04C1524.58 631.928 1524.62 631.848 1524.72 631.8C1524.82 631.752 1524.93 631.728 1525.06 631.728C1525.22 631.728 1525.32 631.752 1525.37 631.8C1525.43 631.832 1525.5 631.904 1525.56 632.016C1525.91 633.216 1526.43 634.184 1527.12 634.92C1527.82 635.656 1528.64 636.024 1529.57 636.024C1530.08 636.024 1530.5 635.912 1530.82 635.688C1531.15 635.448 1531.41 635.152 1531.58 634.8C1531.76 634.432 1531.85 634.064 1531.85 633.696C1531.85 633.184 1531.74 632.752 1531.54 632.4C1531.34 632.048 1531.05 631.728 1530.65 631.44C1530.25 631.152 1529.74 630.84 1529.11 630.504C1528.44 630.12 1527.79 629.72 1527.17 629.304C1526.54 628.872 1526.03 628.352 1525.63 627.744C1525.23 627.136 1525.03 626.376 1525.03 625.464C1525.03 624.52 1525.27 623.704 1525.75 623.016C1526.25 622.328 1526.92 621.792 1527.77 621.408C1528.62 621.024 1529.57 620.832 1530.62 620.832C1531.23 620.832 1531.81 620.896 1532.35 621.024C1532.91 621.152 1533.36 621.28 1533.7 621.408C1533.89 621.488 1534.02 621.576 1534.1 621.672C1534.2 621.768 1534.28 621.936 1534.34 622.176C1534.42 622.512 1534.49 622.92 1534.54 623.4C1534.6 623.88 1534.63 624.408 1534.63 624.984C1534.63 625.192 1534.49 625.296 1534.2 625.296C1534.06 625.296 1533.92 625.264 1533.79 625.2C1533.68 625.12 1533.61 625.024 1533.58 624.912C1533.3 623.952 1532.9 623.224 1532.38 622.728C1531.85 622.232 1531.2 621.984 1530.43 621.984C1529.95 621.984 1529.54 622.064 1529.21 622.224C1528.87 622.384 1528.62 622.624 1528.44 622.944C1528.28 623.264 1528.2 623.664 1528.2 624.144C1528.2 624.528 1528.33 624.888 1528.58 625.224C1528.86 625.544 1529.24 625.872 1529.74 626.208C1530.23 626.544 1530.8 626.904 1531.44 627.288C1532.3 627.8 1532.99 628.304 1533.5 628.8C1534.02 629.296 1534.38 629.824 1534.61 630.384C1534.85 630.928 1534.97 631.56 1534.97 632.28C1534.97 633.368 1534.73 634.272 1534.25 634.992C1533.78 635.712 1533.12 636.248 1532.26 636.6C1531.41 636.936 1530.41 637.104 1529.26 637.104ZM1536.75 636.84C1536.43 636.84 1536.27 636.728 1536.27 636.504C1536.27 636.296 1536.45 636.136 1536.82 636.024C1537.06 635.944 1537.27 635.856 1537.44 635.76C1537.62 635.664 1537.72 635.44 1537.73 635.088V623.568C1537.73 623.136 1537.68 622.76 1537.56 622.44C1537.45 622.12 1537.2 621.92 1536.8 621.84C1536.62 621.808 1536.53 621.688 1536.53 621.48C1536.53 621.272 1536.61 621.152 1536.77 621.12C1537.14 621.04 1537.56 620.928 1538.02 620.784C1538.5 620.624 1538.96 620.464 1539.41 620.304C1539.86 620.128 1540.2 620 1540.44 619.92C1540.57 619.872 1540.68 619.848 1540.76 619.848C1540.85 619.848 1540.92 619.88 1540.95 619.944C1540.98 619.992 1541 620.056 1541 620.136C1541 620.216 1540.98 620.336 1540.95 620.496C1540.93 620.64 1540.92 620.824 1540.9 621.048C1540.88 621.256 1540.87 621.504 1540.85 621.792V627.336C1540.85 627.496 1540.86 627.64 1540.88 627.768C1540.89 627.896 1540.93 627.984 1541 628.032C1541.24 627.824 1541.52 627.6 1541.86 627.36C1542.2 627.104 1542.58 626.88 1543.01 626.688C1543.46 626.496 1543.96 626.4 1544.5 626.4C1545.35 626.4 1546.06 626.704 1546.64 627.312C1547.21 627.904 1547.5 628.736 1547.5 629.808V635.04C1547.5 635.376 1547.59 635.608 1547.76 635.736C1547.94 635.848 1548.14 635.944 1548.36 636.024C1548.54 636.072 1548.67 636.136 1548.75 636.216C1548.84 636.28 1548.89 636.376 1548.89 636.504C1548.89 636.728 1548.72 636.84 1548.36 636.84C1547.98 636.84 1547.67 636.824 1547.43 636.792C1547.19 636.776 1546.96 636.76 1546.73 636.744C1546.52 636.728 1546.25 636.72 1545.92 636.72C1545.56 636.72 1545.29 636.728 1545.1 636.744C1544.91 636.76 1544.71 636.776 1544.5 636.792C1544.29 636.824 1544 636.84 1543.61 636.84C1543.21 636.84 1543.01 636.72 1543.01 636.48C1543.01 636.352 1543.06 636.256 1543.16 636.192C1543.27 636.112 1543.39 636.056 1543.52 636.024C1543.72 635.944 1543.92 635.84 1544.09 635.712C1544.27 635.584 1544.36 635.344 1544.36 634.992V630.264C1544.36 629.912 1544.28 629.6 1544.14 629.328C1544 629.04 1543.8 628.816 1543.56 628.656C1543.34 628.48 1543.09 628.392 1542.82 628.392C1542.58 628.392 1542.32 628.432 1542.03 628.512C1541.74 628.592 1541.46 628.728 1541.19 628.92C1541.06 629.016 1540.97 629.128 1540.92 629.256C1540.89 629.368 1540.88 629.544 1540.88 629.784V635.04C1540.88 635.36 1540.96 635.584 1541.12 635.712C1541.28 635.824 1541.46 635.92 1541.67 636C1541.81 636.048 1541.93 636.112 1542.03 636.192C1542.12 636.256 1542.17 636.352 1542.17 636.48C1542.17 636.72 1542.03 636.84 1541.74 636.84C1541.42 636.84 1541.12 636.824 1540.83 636.792C1540.56 636.776 1540.29 636.76 1540.04 636.744C1539.8 636.728 1539.53 636.72 1539.24 636.72C1538.97 636.72 1538.7 636.728 1538.43 636.744C1538.17 636.76 1537.91 636.776 1537.64 636.792C1537.36 636.824 1537.07 636.84 1536.75 636.84ZM1554.95 637.104C1553.99 637.104 1553.13 636.888 1552.36 636.456C1551.59 636.024 1550.98 635.432 1550.51 634.68C1550.07 633.912 1549.84 633.048 1549.84 632.088C1549.84 631.32 1549.99 630.592 1550.27 629.904C1550.56 629.216 1550.96 628.608 1551.47 628.08C1551.99 627.552 1552.59 627.136 1553.27 626.832C1553.96 626.528 1554.7 626.376 1555.48 626.376C1556.47 626.376 1557.37 626.608 1558.17 627.072C1558.97 627.536 1559.6 628.152 1560.07 628.92C1560.55 629.672 1560.79 630.496 1560.79 631.392C1560.79 632.416 1560.56 633.368 1560.11 634.248C1559.68 635.112 1559.03 635.808 1558.17 636.336C1557.32 636.848 1556.25 637.104 1554.95 637.104ZM1555.43 636.048C1555.77 636.048 1556.06 635.984 1556.3 635.856C1556.55 635.712 1556.76 635.504 1556.92 635.232C1557.11 634.912 1557.24 634.48 1557.31 633.936C1557.39 633.376 1557.43 632.72 1557.43 631.968C1557.43 631.104 1557.33 630.336 1557.14 629.664C1556.95 628.976 1556.67 628.432 1556.32 628.032C1555.99 627.632 1555.59 627.432 1555.12 627.432C1554.87 627.432 1554.63 627.48 1554.43 627.576C1554.22 627.656 1554.03 627.776 1553.87 627.936C1553.6 628.256 1553.41 628.712 1553.3 629.304C1553.2 629.896 1553.15 630.624 1553.15 631.488C1553.15 632.256 1553.25 632.992 1553.44 633.696C1553.65 634.384 1553.92 634.952 1554.26 635.4C1554.61 635.832 1555 636.048 1555.43 636.048ZM1562.2 643.056C1562.09 643.056 1561.98 643.024 1561.86 642.96C1561.77 642.912 1561.72 642.832 1561.72 642.72C1561.72 642.592 1561.77 642.488 1561.86 642.408C1561.98 642.344 1562.11 642.288 1562.27 642.24C1562.61 642.128 1562.84 642.008 1562.97 641.88C1563.11 641.768 1563.18 641.584 1563.18 641.328V629.832C1563.18 629.624 1563.14 629.424 1563.06 629.232C1562.98 629.04 1562.87 628.872 1562.73 628.728C1562.58 628.568 1562.4 628.472 1562.18 628.44C1562.08 628.408 1562.01 628.368 1561.96 628.32C1561.91 628.256 1561.89 628.152 1561.89 628.008C1561.89 627.88 1561.91 627.784 1561.96 627.72C1562.01 627.656 1562.07 627.616 1562.15 627.6C1562.71 627.472 1563.31 627.304 1563.95 627.096C1564.59 626.888 1565.14 626.672 1565.61 626.448C1565.67 626.416 1565.74 626.384 1565.8 626.352C1565.88 626.304 1565.95 626.28 1566.02 626.28C1566.11 626.28 1566.17 626.312 1566.18 626.376C1566.22 626.424 1566.23 626.488 1566.23 626.568C1566.23 626.696 1566.21 626.912 1566.16 627.216C1566.13 627.504 1566.11 627.752 1566.11 627.96C1566.11 628.12 1566.13 628.216 1566.16 628.248C1566.32 628.088 1566.6 627.872 1567 627.6C1567.42 627.328 1567.89 627.088 1568.42 626.88C1568.94 626.672 1569.46 626.568 1569.95 626.568C1570.82 626.568 1571.54 626.8 1572.14 627.264C1572.74 627.712 1573.21 628.296 1573.53 629.016C1573.85 629.72 1574.01 630.464 1574.01 631.248C1574.01 632 1573.86 632.728 1573.58 633.432C1573.3 634.136 1572.91 634.776 1572.4 635.352C1571.89 635.912 1571.3 636.36 1570.62 636.696C1569.95 637.032 1569.23 637.2 1568.46 637.2C1568.29 637.2 1568.07 637.176 1567.82 637.128C1567.58 637.08 1567.33 637.016 1567.07 636.936C1566.83 636.856 1566.61 636.776 1566.4 636.696C1566.38 636.696 1566.37 636.72 1566.35 636.768C1566.34 636.816 1566.32 636.872 1566.3 636.936C1566.3 637 1566.3 637.064 1566.3 637.128V641.112C1566.3 641.32 1566.35 641.496 1566.45 641.64C1566.56 641.784 1566.71 641.896 1566.9 641.976C1567.1 642.072 1567.33 642.16 1567.6 642.24C1567.76 642.288 1567.89 642.344 1567.98 642.408C1568.08 642.488 1568.13 642.592 1568.13 642.72C1568.13 642.816 1568.08 642.896 1567.98 642.96C1567.9 643.024 1567.82 643.056 1567.72 643.056C1567.24 643.056 1566.74 643.032 1566.21 642.984C1565.7 642.952 1565.23 642.936 1564.82 642.936C1564.54 642.936 1564.26 642.944 1563.98 642.96C1563.7 642.976 1563.42 642.992 1563.11 643.008C1562.82 643.04 1562.52 643.056 1562.2 643.056ZM1568.39 636.096C1568.57 636.096 1568.78 636.032 1569.02 635.904C1569.27 635.76 1569.52 635.536 1569.76 635.232C1570.02 634.928 1570.22 634.52 1570.38 634.008C1570.56 633.496 1570.65 632.864 1570.65 632.112C1570.65 631.232 1570.56 630.536 1570.38 630.024C1570.21 629.496 1569.99 629.104 1569.74 628.848C1569.48 628.592 1569.22 628.424 1568.94 628.344C1568.69 628.248 1568.46 628.2 1568.27 628.2C1567.98 628.2 1567.69 628.264 1567.38 628.392C1567.08 628.52 1566.83 628.672 1566.64 628.848C1566.45 629.024 1566.35 629.184 1566.35 629.328C1566.35 629.456 1566.35 629.704 1566.35 630.072C1566.35 630.44 1566.34 630.848 1566.33 631.296C1566.33 631.744 1566.32 632.152 1566.3 632.52C1566.3 632.888 1566.3 633.144 1566.3 633.288C1566.3 633.656 1566.38 634.064 1566.54 634.512C1566.72 634.944 1566.96 635.32 1567.26 635.64C1567.58 635.944 1567.96 636.096 1568.39 636.096ZM1581.14 636.84C1581.01 636.84 1580.9 636.816 1580.8 636.768C1580.71 636.704 1580.66 636.616 1580.66 636.504C1580.66 636.248 1580.83 636.08 1581.16 636C1581.77 635.872 1582.19 635.712 1582.41 635.52C1582.65 635.312 1582.77 634.944 1582.77 634.416V623.664C1582.77 623.12 1582.67 622.728 1582.48 622.488C1582.29 622.232 1581.91 622.04 1581.33 621.912C1581.12 621.864 1580.98 621.8 1580.9 621.72C1580.82 621.624 1580.78 621.52 1580.78 621.408C1580.78 621.312 1580.83 621.232 1580.92 621.168C1581.02 621.088 1581.15 621.048 1581.31 621.048C1581.67 621.048 1582.04 621.056 1582.41 621.072C1582.79 621.088 1583.16 621.112 1583.51 621.144C1583.88 621.16 1584.23 621.168 1584.55 621.168C1584.93 621.168 1585.27 621.152 1585.55 621.12C1585.86 621.072 1586.19 621.032 1586.54 621C1586.91 620.952 1587.35 620.928 1587.86 620.928C1589.81 620.928 1591.35 621.344 1592.49 622.176C1593.64 622.992 1594.22 624.12 1594.22 625.56C1594.22 626.568 1594 627.496 1593.57 628.344C1593.15 629.192 1592.51 629.88 1591.65 630.408C1590.8 630.92 1589.72 631.176 1588.41 631.176C1587.99 631.176 1587.67 631.112 1587.45 630.984C1587.24 630.856 1587.14 630.704 1587.14 630.528C1587.14 630.416 1587.19 630.328 1587.28 630.264C1587.39 630.184 1587.49 630.144 1587.57 630.144C1587.75 630.144 1587.9 630.168 1588.03 630.216C1588.15 630.248 1588.33 630.264 1588.55 630.264C1589.23 630.264 1589.73 629.888 1590.07 629.136C1590.42 628.384 1590.59 627.392 1590.59 626.16C1590.59 624.688 1590.35 623.624 1589.87 622.968C1589.39 622.312 1588.72 621.984 1587.86 621.984C1587.41 621.984 1587.07 622.088 1586.83 622.296C1586.6 622.488 1586.49 622.792 1586.49 623.208L1586.47 634.368C1586.47 634.88 1586.6 635.248 1586.87 635.472C1587.15 635.68 1587.62 635.856 1588.29 636C1588.47 636.032 1588.59 636.088 1588.67 636.168C1588.77 636.232 1588.82 636.336 1588.82 636.48C1588.82 636.592 1588.78 636.68 1588.7 636.744C1588.62 636.808 1588.51 636.84 1588.36 636.84C1588.01 636.84 1587.6 636.824 1587.14 636.792C1586.69 636.776 1586.24 636.76 1585.79 636.744C1585.35 636.728 1584.96 636.72 1584.64 636.72C1584.31 636.72 1583.94 636.728 1583.54 636.744C1583.14 636.76 1582.72 636.776 1582.29 636.792C1581.87 636.824 1581.49 636.84 1581.14 636.84ZM1595.84 636.84C1595.71 636.84 1595.6 636.816 1595.5 636.768C1595.4 636.704 1595.36 636.616 1595.36 636.504C1595.36 636.376 1595.4 636.28 1595.5 636.216C1595.6 636.136 1595.73 636.072 1595.91 636.024C1596.26 635.912 1596.49 635.792 1596.6 635.664C1596.73 635.536 1596.8 635.352 1596.8 635.112V629.592C1596.8 629.256 1596.75 628.984 1596.65 628.776C1596.57 628.552 1596.38 628.4 1596.08 628.32C1596 628.288 1595.92 628.248 1595.86 628.2C1595.8 628.136 1595.76 628.032 1595.76 627.888C1595.76 627.664 1595.86 627.528 1596.05 627.48C1596.56 627.352 1597.12 627.184 1597.73 626.976C1598.36 626.768 1598.88 626.56 1599.32 626.352C1599.4 626.288 1599.49 626.232 1599.6 626.184C1599.73 626.12 1599.82 626.088 1599.87 626.088C1600.01 626.088 1600.08 626.176 1600.08 626.352C1600.08 626.432 1600.08 626.6 1600.06 626.856C1600.06 627.096 1600.05 627.344 1600.04 627.6C1600.04 627.856 1600.03 628.072 1600.01 628.248C1600.01 628.392 1600.04 628.464 1600.11 628.464C1600.35 628.128 1600.63 627.8 1600.95 627.48C1601.28 627.16 1601.64 626.896 1602.03 626.688C1602.41 626.48 1602.79 626.376 1603.16 626.376C1603.72 626.376 1604.11 626.48 1604.33 626.688C1604.57 626.896 1604.69 627.168 1604.69 627.504C1604.69 627.744 1604.62 628.008 1604.48 628.296C1604.35 628.584 1604.18 628.832 1603.97 629.04C1603.76 629.248 1603.54 629.352 1603.3 629.352C1603.16 629.352 1603 629.32 1602.84 629.256C1602.68 629.176 1602.52 629.096 1602.36 629.016C1602.2 628.952 1602.04 628.888 1601.88 628.824C1601.74 628.744 1601.6 628.704 1601.48 628.704C1601.06 628.704 1600.7 628.856 1600.4 629.16C1600.09 629.464 1599.94 630.072 1599.94 630.984V634.896C1599.94 635.216 1600.04 635.456 1600.23 635.616C1600.44 635.76 1600.76 635.896 1601.21 636.024C1601.39 636.072 1601.52 636.136 1601.6 636.216C1601.69 636.28 1601.74 636.376 1601.74 636.504C1601.74 636.728 1601.6 636.84 1601.33 636.84C1600.85 636.84 1600.36 636.816 1599.84 636.768C1599.33 636.736 1598.87 636.72 1598.45 636.72C1598.18 636.72 1597.9 636.728 1597.61 636.744C1597.34 636.76 1597.05 636.776 1596.75 636.792C1596.46 636.824 1596.16 636.84 1595.84 636.84ZM1610.15 637.104C1609.19 637.104 1608.32 636.888 1607.56 636.456C1606.79 636.024 1606.17 635.432 1605.71 634.68C1605.26 633.912 1605.04 633.048 1605.04 632.088C1605.04 631.32 1605.18 630.592 1605.47 629.904C1605.76 629.216 1606.16 628.608 1606.67 628.08C1607.18 627.552 1607.78 627.136 1608.47 626.832C1609.16 626.528 1609.89 626.376 1610.68 626.376C1611.67 626.376 1612.56 626.608 1613.36 627.072C1614.16 627.536 1614.8 628.152 1615.26 628.92C1615.74 629.672 1615.98 630.496 1615.98 631.392C1615.98 632.416 1615.76 633.368 1615.31 634.248C1614.88 635.112 1614.23 635.808 1613.36 636.336C1612.52 636.848 1611.44 637.104 1610.15 637.104ZM1610.63 636.048C1610.96 636.048 1611.25 635.984 1611.49 635.856C1611.75 635.712 1611.96 635.504 1612.12 635.232C1612.31 634.912 1612.44 634.48 1612.5 633.936C1612.58 633.376 1612.62 632.72 1612.62 631.968C1612.62 631.104 1612.52 630.336 1612.33 629.664C1612.14 628.976 1611.87 628.432 1611.52 628.032C1611.18 627.632 1610.78 627.432 1610.32 627.432C1610.06 627.432 1609.83 627.48 1609.62 627.576C1609.41 627.656 1609.23 627.776 1609.07 627.936C1608.8 628.256 1608.6 628.712 1608.49 629.304C1608.4 629.896 1608.35 630.624 1608.35 631.488C1608.35 632.256 1608.44 632.992 1608.64 633.696C1608.84 634.384 1609.12 634.952 1609.45 635.4C1609.8 635.832 1610.2 636.048 1610.63 636.048ZM1625.12 637.224C1625.08 637.224 1625 637.168 1624.91 637.056C1624.83 636.96 1624.79 636.88 1624.79 636.816C1624.82 636.576 1624.84 636.352 1624.86 636.144C1624.89 635.92 1624.91 635.72 1624.91 635.544V635.4C1624.59 635.896 1624.14 636.304 1623.56 636.624C1623 636.944 1622.4 637.104 1621.74 637.104C1620.84 637.104 1620.04 636.88 1619.34 636.432C1618.65 635.984 1618.11 635.376 1617.71 634.608C1617.31 633.84 1617.11 633 1617.11 632.088C1617.11 631 1617.35 630.032 1617.83 629.184C1618.31 628.336 1618.98 627.672 1619.84 627.192C1620.71 626.696 1621.71 626.448 1622.84 626.448C1623.08 626.448 1623.33 626.472 1623.59 626.52C1623.86 626.552 1624.11 626.6 1624.33 626.664C1624.56 626.712 1624.66 626.736 1624.64 626.736C1624.71 626.736 1624.74 626.632 1624.74 626.424V623.568C1624.74 622.992 1624.67 622.576 1624.52 622.32C1624.38 622.064 1624.14 621.904 1623.8 621.84C1623.61 621.792 1623.52 621.672 1623.52 621.48C1623.52 621.272 1623.6 621.152 1623.78 621.12C1624.37 620.992 1624.98 620.832 1625.6 620.64C1626.24 620.432 1626.76 620.24 1627.16 620.064C1627.37 619.968 1627.52 619.912 1627.6 619.896C1627.68 619.864 1627.72 619.848 1627.74 619.848C1627.92 619.848 1628 619.944 1628 620.136C1628 620.088 1628 620.152 1627.98 620.328C1627.96 620.488 1627.95 620.704 1627.93 620.976C1627.92 621.248 1627.9 621.52 1627.88 621.792L1627.76 633.888C1627.76 634.432 1627.8 634.824 1627.88 635.064C1627.96 635.304 1628.11 635.424 1628.32 635.424C1628.4 635.424 1628.48 635.416 1628.56 635.4C1628.65 635.384 1628.88 635.368 1629.25 635.352C1629.48 635.336 1629.59 635.416 1629.59 635.592C1629.59 635.72 1629.54 635.856 1629.44 636C1629.35 636.144 1629.26 636.216 1629.18 636.216C1628.6 636.28 1628 636.384 1627.36 636.528C1626.73 636.672 1626.12 636.856 1625.53 637.08C1625.44 637.128 1625.36 637.16 1625.29 637.176C1625.23 637.208 1625.17 637.224 1625.12 637.224ZM1622.96 635.472C1623.2 635.472 1623.5 635.408 1623.85 635.28C1624.22 635.152 1624.52 634.968 1624.74 634.728L1624.72 629.424C1624.72 629.136 1624.6 628.856 1624.38 628.584C1624.17 628.296 1623.9 628.056 1623.56 627.864C1623.24 627.672 1622.92 627.576 1622.6 627.576C1622.22 627.576 1621.86 627.736 1621.52 628.056C1621.2 628.36 1620.94 628.8 1620.73 629.376C1620.54 629.936 1620.44 630.624 1620.44 631.44C1620.44 632.096 1620.51 632.672 1620.64 633.168C1620.78 633.664 1620.97 634.088 1621.21 634.44C1621.45 634.776 1621.72 635.032 1622.03 635.208C1622.33 635.384 1622.64 635.472 1622.96 635.472ZM1637.91 637.272C1637.79 637.272 1637.72 637.192 1637.72 637.032C1637.72 636.84 1637.74 636.584 1637.77 636.264C1637.82 635.944 1637.84 635.696 1637.84 635.52C1637.84 635.456 1637.83 635.4 1637.82 635.352C1637.82 635.304 1637.81 635.272 1637.79 635.256C1637.36 635.784 1636.81 636.232 1636.14 636.6C1635.47 636.952 1634.75 637.128 1634 637.128C1633.51 637.128 1633.06 636.984 1632.66 636.696C1632.26 636.392 1631.94 635.984 1631.7 635.472C1631.47 634.96 1631.36 634.384 1631.36 633.744V629.256C1631.36 628.888 1631.29 628.592 1631.15 628.368C1631.02 628.144 1630.77 627.992 1630.4 627.912C1630.31 627.896 1630.22 627.856 1630.14 627.792C1630.07 627.712 1630.04 627.6 1630.04 627.456C1630.04 627.344 1630.07 627.256 1630.14 627.192C1630.2 627.112 1630.29 627.064 1630.4 627.048C1631.07 627.016 1631.68 626.952 1632.23 626.856C1632.77 626.744 1633.32 626.616 1633.88 626.472C1633.96 626.456 1634.04 626.44 1634.12 626.424C1634.22 626.392 1634.31 626.376 1634.39 626.376C1634.61 626.376 1634.71 626.488 1634.7 626.712C1634.63 627.08 1634.59 627.392 1634.55 627.648C1634.52 627.888 1634.51 628.192 1634.51 628.56V633.168C1634.51 633.552 1634.57 633.888 1634.7 634.176C1634.83 634.464 1635 634.688 1635.23 634.848C1635.45 635.008 1635.7 635.096 1635.97 635.112C1636.23 635.112 1636.47 635.08 1636.71 635.016C1636.97 634.952 1637.21 634.808 1637.43 634.584C1637.53 634.504 1637.63 634.344 1637.75 634.104C1637.86 633.848 1637.91 633.512 1637.91 633.096V629.232C1637.91 628.944 1637.86 628.712 1637.75 628.536C1637.63 628.344 1637.48 628.192 1637.29 628.08C1637.1 627.968 1636.87 627.904 1636.62 627.888C1636.44 627.872 1636.3 627.832 1636.19 627.768C1636.09 627.688 1636.04 627.552 1636.04 627.36C1636.04 627.2 1636.1 627.08 1636.21 627C1636.32 626.92 1636.46 626.88 1636.62 626.88C1637.43 626.832 1638.08 626.792 1638.56 626.76C1639.04 626.712 1639.43 626.664 1639.74 626.616C1640.04 626.568 1640.35 626.512 1640.65 626.448C1640.7 626.432 1640.75 626.416 1640.82 626.4C1640.88 626.384 1640.93 626.376 1640.96 626.376C1641.2 626.376 1641.32 626.472 1641.32 626.664C1641.32 626.712 1641.31 626.768 1641.3 626.832C1641.28 626.896 1641.26 626.96 1641.23 627.024C1641.21 627.088 1641.19 627.232 1641.15 627.456C1641.14 627.664 1641.11 627.888 1641.08 628.128C1641.07 628.368 1641.06 628.56 1641.06 628.704V634.272C1641.06 634.64 1641.1 634.888 1641.18 635.016C1641.27 635.128 1641.38 635.184 1641.49 635.184C1641.57 635.184 1641.69 635.192 1641.85 635.208C1642.01 635.208 1642.11 635.208 1642.16 635.208C1642.31 635.208 1642.42 635.248 1642.5 635.328C1642.58 635.408 1642.62 635.512 1642.62 635.64C1642.62 635.784 1642.59 635.904 1642.52 636C1642.47 636.08 1642.37 636.128 1642.21 636.144C1641.44 636.208 1640.75 636.344 1640.12 636.552C1639.51 636.744 1638.99 636.928 1638.54 637.104C1638.44 637.136 1638.34 637.168 1638.23 637.2C1638.11 637.248 1638.01 637.272 1637.91 637.272ZM1647.89 637.104C1647.04 637.104 1646.28 636.88 1645.59 636.432C1644.92 635.968 1644.38 635.352 1643.98 634.584C1643.6 633.8 1643.4 632.92 1643.4 631.944C1643.4 630.904 1643.64 629.968 1644.12 629.136C1644.6 628.304 1645.24 627.64 1646.04 627.144C1646.86 626.648 1647.76 626.4 1648.76 626.4C1650.07 626.4 1651.16 626.832 1652.02 627.696C1652.16 627.856 1652.24 628 1652.24 628.128C1652.24 628.224 1652.16 628.368 1652.02 628.56C1651.88 628.736 1651.72 628.896 1651.54 629.04C1651.36 629.184 1651.21 629.256 1651.08 629.256C1650.94 629.256 1650.8 629.216 1650.65 629.136C1650.52 629.04 1650.4 628.936 1650.27 628.824C1649.85 628.472 1649.43 628.192 1649 627.984C1648.58 627.76 1648.22 627.648 1647.92 627.648C1647.31 627.648 1646.84 627.904 1646.52 628.416C1646.22 628.912 1646.07 629.728 1646.07 630.864C1646.07 631.648 1646.19 632.328 1646.43 632.904C1646.68 633.464 1647.04 633.896 1647.51 634.2C1647.97 634.504 1648.53 634.656 1649.19 634.656C1649.67 634.656 1650.08 634.584 1650.44 634.44C1650.79 634.28 1651.16 634.04 1651.54 633.72C1651.62 633.672 1651.68 633.624 1651.73 633.576C1651.8 633.528 1651.87 633.504 1651.95 633.504C1652.14 633.504 1652.24 633.632 1652.24 633.888C1652.24 633.952 1652.22 634.048 1652.19 634.176C1652.17 634.288 1652.12 634.416 1652.04 634.56C1651.9 634.88 1651.62 635.24 1651.2 635.64C1650.8 636.04 1650.32 636.384 1649.76 636.672C1649.2 636.96 1648.58 637.104 1647.89 637.104ZM1657.69 637.104C1656.83 637.104 1656.05 636.88 1655.36 636.432C1654.69 635.968 1654.15 635.344 1653.75 634.56C1653.37 633.76 1653.18 632.856 1653.18 631.848C1653.18 630.84 1653.41 629.928 1653.87 629.112C1654.34 628.28 1654.97 627.624 1655.77 627.144C1656.57 626.648 1657.45 626.4 1658.41 626.4C1659.1 626.4 1659.71 626.552 1660.26 626.856C1660.8 627.144 1661.23 627.536 1661.55 628.032C1661.89 628.528 1662.06 629.088 1662.06 629.712C1662.06 630.32 1661.81 630.624 1661.31 630.624H1656.51C1656.29 630.624 1656.12 630.688 1656.01 630.816C1655.91 630.944 1655.87 631.16 1655.87 631.464C1655.87 632.072 1656 632.632 1656.27 633.144C1656.55 633.64 1656.91 634.032 1657.38 634.32C1657.84 634.608 1658.38 634.752 1658.99 634.752C1659.45 634.752 1659.87 634.664 1660.26 634.488C1660.66 634.312 1661.05 634.072 1661.43 633.768C1661.5 633.72 1661.55 633.68 1661.6 633.648C1661.67 633.6 1661.72 633.576 1661.77 633.576C1661.93 633.576 1662.01 633.68 1662.01 633.888C1662.01 634.064 1661.95 634.304 1661.82 634.608C1661.66 635.008 1661.39 635.408 1661 635.808C1660.63 636.192 1660.17 636.504 1659.61 636.744C1659.05 636.984 1658.41 637.104 1657.69 637.104ZM1656.51 629.616H1657.95C1658.4 629.616 1658.71 629.608 1658.89 629.592C1659.07 629.576 1659.23 629.544 1659.37 629.496C1659.45 629.464 1659.51 629.384 1659.56 629.256C1659.61 629.128 1659.63 628.984 1659.63 628.824C1659.63 628.392 1659.48 628.04 1659.18 627.768C1658.89 627.496 1658.53 627.36 1658.1 627.36C1657.76 627.36 1657.44 627.456 1657.14 627.648C1656.85 627.824 1656.61 628.064 1656.42 628.368C1656.24 628.656 1656.16 628.96 1656.18 629.28C1656.18 629.504 1656.29 629.616 1656.51 629.616Z" fill="#F4F1E6"/>
</g>
</g>
<defs>
<clipPath id="clip0_414_1078">
<rect width="287" height="380" fill="white" transform="translate(1386 273.768)"/>
</clipPath>
<clipPath id="clip1_414_1078">
<rect width="159" height="102" fill="white" transform="translate(1514 551.768)"/>
</clipPath>
</defs>
</svg>
