<svg width="1728" height="704" viewBox="0 0 1728 704" fill="none" xmlns="http://www.w3.org/2000/svg">
<g clip-path="url(#clip0_440_1375)">
<rect width="1728" height="704" fill="#F4F1E6"/>
<path d="M970.934 335.074C979.726 281.15 1021.93 175.412 1120.4 183.853C1243.48 194.403 1276.89 259.463 1280.41 289.356C1283.93 319.248 1259.31 403.651 1225.9 422.993C1192.49 442.335 1106 447.61 1078.2 447.61C1055.34 447.61 981.485 417.717 970.934 335.074Z" fill="#E9B44C"/>
<ellipse opacity="0.5" cx="1173.62" cy="293.305" rx="18.4522" ry="12.6262" transform="rotate(-24.0132 1173.62 293.305)" fill="#9E1612"/>
<path d="M1087.56 312.999C1089.74 315.31 1092.26 318.933 1092.06 321.718M1085.07 325.686C1090.07 325.584 1091.91 323.911 1092.06 321.718M1092.06 321.718C1099.88 323.066 1118.31 324.347 1129.44 318.688C1132.78 316.795 1139.8 312.643 1141.13 311.184M1141.13 311.184C1138.82 308.426 1141.66 303.815 1143.37 301.854M1141.13 311.184C1142.7 312.475 1146.55 314.58 1149.37 312.68" stroke="#3C3C3B" stroke-width="2"/>
<ellipse opacity="0.5" cx="18.4522" cy="12.6262" rx="18.4522" ry="12.6262" transform="matrix(-0.99436 -0.106062 -0.106062 0.99436 1075.28 301.322)" fill="#9E1612"/>
<path d="M1094.5 290.24C1097.12 306.807 1043.65 317.972 1040.62 298.739L1058.52 295.916L1076.51 293.078L1094.5 290.24Z" fill="#3C3C3B"/>
<path d="M1058.52 295.916L1076.51 293.078C1075.92 289.318 1072.47 286.641 1066.33 287.61C1061.95 288.3 1057.83 291.584 1058.52 295.916Z" fill="#3C3C3B"/>
<path d="M1094.5 290.24C1092.41 276.987 1038.48 285.22 1040.62 298.739L1058.52 295.916C1057.83 291.584 1061.95 288.3 1066.33 287.61C1072.47 286.641 1075.92 289.318 1076.51 293.078L1094.5 290.24Z" fill="#E9B44C"/>
<path d="M1040.62 298.739C1038.48 285.22 1092.41 276.987 1094.5 290.24M1040.62 298.739C1043.65 317.972 1097.12 306.807 1094.5 290.24M1040.62 298.739L1058.52 295.916M1094.5 290.24L1076.51 293.078M1058.52 295.916L1076.51 293.078M1058.52 295.916C1057.83 291.584 1061.95 288.3 1066.33 287.61C1072.47 286.641 1075.92 289.318 1076.51 293.078" stroke="#3C3C3B" stroke-width="2"/>
<path d="M1129.92 284.655C1132.54 301.221 1186.84 295.388 1183.81 276.156L1165.91 278.979L1147.92 281.817L1129.92 284.655Z" fill="#3C3C3B"/>
<path d="M1165.91 278.979L1147.92 281.817C1147.32 278.056 1149.78 274.449 1155.92 273.481C1160.3 272.79 1165.23 274.647 1165.91 278.979Z" fill="#3C3C3B"/>
<path d="M1129.92 284.655C1127.83 271.402 1181.68 262.637 1183.81 276.156L1165.91 278.979C1165.23 274.647 1160.3 272.79 1155.92 273.481C1149.78 274.449 1147.32 278.056 1147.92 281.817L1129.92 284.655Z" fill="#E9B44C"/>
<path d="M1183.81 276.156C1181.68 262.637 1127.83 271.402 1129.92 284.655M1183.81 276.156C1186.84 295.388 1132.54 301.221 1129.92 284.655M1183.81 276.156L1165.91 278.979M1129.92 284.655L1147.92 281.817M1165.91 278.979L1147.92 281.817M1165.91 278.979C1165.23 274.647 1160.3 272.79 1155.92 273.481C1149.78 274.449 1147.32 278.056 1147.92 281.817" stroke="#3C3C3B" stroke-width="2"/>
<path d="M1114.58 292.349C1115.3 297.4 1114.9 306.593 1107.6 302.964" stroke="#3C3C3B" stroke-width="2"/>
<path d="M840.676 636.807C957.296 636.807 1192.08 682.873 1294.9 704H1728V222.723C1679.41 194.554 1547.58 144.976 1408.99 172.019C1278.76 197.428 1195.1 305.207 1129.27 387.673C1107.53 414.915 1087.73 439.394 1068.85 457.23C1008 514.695 767.893 543.649 655.445 550.944C723.709 599.477 788.324 636.807 840.676 636.807Z" fill="#2D5948"/>
<path d="M-0.495117 426.062C49.5049 390.85 184.057 320.751 304.057 332.582C400.187 342.06 533.628 464.338 655.445 550.944C767.893 543.649 1008 514.695 1068.85 457.23C1087.73 439.394 1107.53 414.915 1129.27 387.673C927.439 317.901 497.578 181.737 392.789 195.258C261.803 212.159 54.7612 110.751 29.4092 106.526L-0.495117 96.9824V426.062Z" fill="#82A36B"/>
<path d="M304.057 332.582C184.057 320.751 49.5049 390.85 -0.495117 426.062V700.188L1294.9 704C1192.08 682.873 957.296 636.807 840.676 636.807C788.324 636.807 723.709 599.477 655.445 550.944C533.628 464.338 400.187 342.06 304.057 332.582Z" fill="#B5BD89"/>
</g>
<defs>
<clipPath id="clip0_440_1375">
<rect width="1728" height="704" fill="white"/>
</clipPath>
</defs>
</svg>
