<svg width="21" height="21" viewBox="0 0 21 21" fill="none" xmlns="http://www.w3.org/2000/svg">
<g id="memory:cancel">
<path id="Vector" d="M19.6115 6.86363V14.1364H18.7024V15.9545H17.7933V16.8636H16.8842V17.7727H15.9751V18.6818H14.157V19.5909H6.88423V18.6818H5.06605V17.7727H4.15696V16.8636H3.24787V15.9545H2.33878V14.1364H1.42969V6.86363H2.33878V5.04545H3.24787V4.13636H4.15696V3.22727H5.06605V2.31818H6.88423V1.40909H14.157V2.31818H15.9751V3.22727H16.8842V4.13636H17.7933V5.04545H18.7024V6.86363H19.6115ZM15.9751 5.95454V5.04545H15.0661V4.13636H13.2479V3.22727H7.79332V4.13636H5.97514V5.04545H6.88423V5.95454H7.79332V6.86363H8.70242V7.77273H9.61151V8.68182H10.5206V9.59091H11.4297V10.5H12.3388V11.4091H13.2479V12.3182H14.157V13.2273H15.0661V14.1364H15.9751V15.0455H16.8842V13.2273H17.7933V7.77273H16.8842V5.95454H15.9751ZM13.2479 15.0455V14.1364H12.3388V13.2273H11.4297V12.3182H10.5206V11.4091H9.61151V10.5H8.70242V9.59091H7.79332V8.68182H6.88423V7.77273H5.97514V6.86363H5.06605V5.95454H4.15696V7.77273H3.24787V13.2273H4.15696V15.0455H5.06605V15.9545H5.97514V16.8636H7.79332V17.7727H13.2479V16.8636H15.0661V15.9545H14.157V15.0455H13.2479Z" fill="#9E1612"/>
</g>
</svg>
