<svg width="121" height="1358" viewBox="0 0 121 1358" fill="none" xmlns="http://www.w3.org/2000/svg">
<path d="M64.0909 75.3936C81.6241 112.567 113.745 194.67 101.963 225.702C87.2348 264.491 30.4272 296.007 47.259 359.039C64.0909 422.072 83.0267 456.796 64.0909 493.161C45.1551 529.526 34.6351 559.112 47.2591 617.296C59.8831 675.48 101.963 637.486 101.963 715.41C101.963 794.839 47.259 757.248 47.259 815.431C47.259 873.615 101.963 902.785 101.963 953.696C101.963 1004.61 64.456 992.376 64.0909 1050.78C63.7169 1110.59 97.6805 1180.14 101.963 1239.75C107.918 1322.66 47.2591 1309.4 47.2591 1357.88" stroke="#2D5948" stroke-width="5"/>
<path d="M68.8826 81.183C64.6961 64.9603 51.2993 31.5729 31.2041 27.8051C11.1089 24.0373 10.2716 8.44259 12.3648 1.11621C-0.19471 30.945 -6.47454 88.7187 68.8826 81.183Z" fill="#2D5948" stroke="#2D5948" stroke-width="2"/>
<path d="M54.8311 511.468C59.0175 495.245 72.4143 461.858 92.5095 458.09C112.605 454.322 113.442 438.728 111.349 431.401C123.908 461.23 130.188 519.004 54.8311 511.468Z" fill="#2D5948" stroke="#2D5948" stroke-width="2"/>
<path d="M65.2966 1029.18C61.1101 1012.96 47.7134 979.573 27.6182 975.805C7.52295 972.037 6.68565 956.443 8.7789 949.116C-3.78065 978.945 -10.0605 1036.72 65.2966 1029.18Z" fill="#2D5948" stroke="#2D5948" stroke-width="2"/>
</svg>
